<!DOCTYPE svg PUBLIC "-//W3C//DTD SVG 1.1//EN" "http://www.w3.org/Graphics/SVG/1.1/DTD/svg11.dtd">
<!-- Uploaded to: SVG Repo, www.svgrepo.com, Transformed by: SVG Repo Mixer Tools -->
<svg height="800px" width="800px" version="1.1" id="Layer_1" xmlns="http://www.w3.org/2000/svg" xmlns:xlink="http://www.w3.org/1999/xlink" viewBox="-51.2 -51.2 614.40 614.40" xml:space="preserve" fill="#000000" transform="matrix(1, 0, 0, 1, 0, 0)rotate(0)" stroke="#000000">
<g id="SVGRepo_bgCarrier" stroke-width="0">
<path transform="translate(-51.2, -51.2), scale(19.2)" d="M16,28.247647066911064C17.984190128073287,28.264282004985915,18.73676106668863,25.457524717569502,20.37977377778912,24.344961723096624C21.79759121529951,23.38488928833386,24.050483740144134,23.635207613993828,24.956897991309077,22.182500289242924C25.870190199043094,20.718769684711976,24.453041065399933,18.745316064691288,24.911457126022825,17.08204679764184C25.481931514884135,15.012196720088852,27.93028875896031,13.631806063229607,27.90527202643004,11.484925876776177C27.88069132440371,9.375464855613771,26.28006241014674,7.572352617951023,24.78332088295177,6.085680222469854C23.24484350150271,4.557552745203347,21.33362357239445,3.4207685536817634,19.23541721166894,2.873396369680556C17.124009871176824,2.322580363726915,14.656200780736844,1.833318270106714,12.784834349218286,2.9555601820331017C10.870613530111655,4.103501491496641,10.588608502327695,6.7307440901972,9.52813104875762,8.694770099379273C8.795418418960354,10.051768927910176,8.110629805274854,11.361103738114629,7.485123566740109,12.770733322102133C6.82571138855042,14.256772720518443,5.745053595590963,15.620864829600983,5.733360910676167,17.246595679252874C5.721268252493774,18.927938125805557,6.33526977997704,20.637552387337067,7.4192992738941665,21.922830066004C8.476228642729225,23.17597652863621,10.338991663988235,23.299164679698077,11.658600494229038,24.271845656516376C13.26143704099156,25.453293205408986,14.008863479232087,28.23095389207216,16,28.247647066911064" fill="#420000" strokewidth="0"/>
</g>
<g id="SVGRepo_tracerCarrier" stroke-linecap="round" stroke-linejoin="round"/>
<g id="SVGRepo_iconCarrier"> <polygon style="fill:#ffffff;" points="501.802,249.853 256.001,36.912 10.201,249.853 82.194,249.853 82.194,475.088 429.808,475.088 429.808,249.853 "/> <path style="fill:#7fbdb6;" d="M256.001,213.001L256.001,213.001c-42.927,0-77.726,34.8-77.726,77.726v183.634h155.452V290.727 C333.727,247.799,298.928,213.001,256.001,213.001z"/> <circle style="fill:#240000;" cx="287.322" cy="349.363" r="17.812"/> <g> <path style="fill:#000000;" d="M508.479,242.144l-245.8-212.941c-3.833-3.321-9.524-3.321-13.357,0L3.522,242.144 c-3.219,2.788-4.366,7.283-2.878,11.273c1.488,3.99,5.297,6.636,9.557,6.636h61.794v215.035c0,5.632,4.566,10.199,10.199,10.199 h347.614c5.633,0,10.199-4.567,10.199-10.199V260.053H501.8c4.258,0,8.069-2.646,9.557-6.636 C512.844,249.427,511.698,244.933,508.479,242.144z M188.475,464.162V290.727c0-37.234,30.293-67.527,67.527-67.527 c37.234,0,67.527,30.293,67.527,67.527v173.435L188.475,464.162L188.475,464.162z M429.808,239.654 c-5.633,0-10.199,4.567-10.199,10.199v215.036h-75.683V290.727c0-48.482-39.443-87.925-87.925-87.925s-87.925,39.443-87.925,87.925 v174.162H92.393V249.853c0-5.632-4.566-10.199-10.199-10.199H37.55L256.001,50.406l218.451,189.248H429.808z"/> <path style="fill:#000000;" d="M287.32,321.351c-15.446,0-28.011,12.565-28.011,28.011c0,15.446,12.565,28.011,28.011,28.011 c15.446,0,28.011-12.565,28.011-28.011C315.331,333.916,302.766,321.351,287.32,321.351z M287.32,356.974 c-4.198,0-7.613-3.416-7.613-7.613c0-4.197,3.416-7.613,7.613-7.613c4.197,0,7.613,3.416,7.613,7.613 C294.933,353.559,291.518,356.974,287.32,356.974z"/> <path style="fill:#000000;" d="M227.969,92.392l-4.79,4.08c-4.289,3.652-4.803,10.09-1.15,14.378 c2.017,2.368,4.884,3.586,7.769,3.586c2.339,0,4.69-0.8,6.608-2.436l4.79-4.08c4.289-3.652,4.803-10.09,1.15-14.378 C238.694,89.254,232.257,88.74,227.969,92.392z"/> <path style="fill:#000000;" d="M198.036,117.89L90.28,209.683c-4.288,3.652-4.803,10.09-1.149,14.378 c2.017,2.368,4.884,3.586,7.769,3.586c2.339,0,4.69-0.8,6.609-2.436l107.756-91.793c4.288-3.652,4.803-10.09,1.149-14.378 C208.762,114.752,202.324,114.237,198.036,117.89z"/> </g> </g>
</svg>